<svg width="6" height="11" viewBox="0 0 6 11" fill="none" xmlns="http://www.w3.org/2000/svg">
<path d="M5.8396 5.14451C5.83784 4.9246 5.75057 4.71402 5.59626 4.55733L1.53354 0.494597C1.37501 0.335355 1.15971 0.245617 0.935003 0.24512C0.7103 0.244621 0.494603 0.333415 0.335362 0.491951C0.176121 0.650488 0.0863792 0.865784 0.0858809 1.09049C0.0853827 1.31519 0.174168 1.53089 0.332704 1.69013L3.79766 5.15509L0.332705 8.62005C0.254206 8.6989 0.192005 8.79244 0.149655 8.89533C0.107305 8.99822 0.0856346 9.10843 0.0858816 9.21969C0.0861282 9.33096 0.108288 9.44108 0.151093 9.54378C0.1939 9.64648 0.256514 9.73974 0.335361 9.81824C0.41421 9.89674 0.507748 9.95893 0.610635 10.0013C0.713521 10.0436 0.823742 10.0653 0.935004 10.0651C1.04627 10.0648 1.15639 10.0427 1.25909 9.99985C1.36178 9.95704 1.45504 9.89443 1.53354 9.81558L5.59626 5.75286C5.67521 5.67272 5.7374 5.57764 5.77918 5.47318C5.82096 5.36873 5.8415 5.25699 5.8396 5.14451Z" fill="#596DE7"/>
</svg>
