<svg width="3" height="13" viewBox="0 0 3 13" fill="none" xmlns="http://www.w3.org/2000/svg">
<path d="M1.28594 7.44512C1.94868 7.44512 2.48594 6.90786 2.48594 6.24512C2.48594 5.58238 1.94868 5.04512 1.28594 5.04512C0.623196 5.04512 0.0859375 5.58238 0.0859375 6.24512C0.0859375 6.90786 0.623196 7.44512 1.28594 7.44512Z" fill="#99A6B7"/>
<path d="M1.28594 2.64512C1.94868 2.64512 2.48594 2.10786 2.48594 1.44512C2.48594 0.782375 1.94868 0.245117 1.28594 0.245117C0.623196 0.245117 0.0859375 0.782375 0.0859375 1.44512C0.0859375 2.10786 0.623196 2.64512 1.28594 2.64512Z" fill="#99A6B7"/>
<path d="M1.28594 12.2451C1.94868 12.2451 2.48594 11.7079 2.48594 11.0451C2.48594 10.3824 1.94868 9.84512 1.28594 9.84512C0.623196 9.84512 0.0859375 10.3824 0.0859375 11.0451C0.0859375 11.7079 0.623196 12.2451 1.28594 12.2451Z" fill="#99A6B7"/>
</svg>
