<svg width="22" height="22" viewBox="0 0 22 22" fill="none" xmlns="http://www.w3.org/2000/svg">
<path d="M11.0867 13.6215C12.4674 13.6215 13.5867 12.5022 13.5867 11.1215C13.5867 9.74078 12.4674 8.62149 11.0867 8.62149C9.70596 8.62149 8.58667 9.74078 8.58667 11.1215C8.58667 12.5022 9.70596 13.6215 11.0867 13.6215Z" stroke="#4C4C4C" stroke-width="2" stroke-linecap="round" stroke-linejoin="round"/>
<path d="M17.2533 13.6215C17.1423 13.8728 17.1092 14.1517 17.1582 14.422C17.2073 14.6923 17.3361 14.9418 17.5283 15.1382L17.5783 15.1882C17.7332 15.3429 17.8561 15.5268 17.94 15.7291C18.0239 15.9314 18.0671 16.1483 18.0671 16.3673C18.0671 16.5863 18.0239 16.8032 17.94 17.0056C17.8561 17.2079 17.7332 17.3917 17.5783 17.5465C17.4235 17.7014 17.2397 17.8244 17.0373 17.9083C16.835 17.9921 16.6181 18.0353 16.3991 18.0353C16.1801 18.0353 15.9632 17.9921 15.7609 17.9083C15.5585 17.8244 15.3747 17.7014 15.2199 17.5465L15.1699 17.4965C14.9735 17.3044 14.7241 17.1755 14.4537 17.1265C14.1834 17.0775 13.9046 17.1106 13.6533 17.2215C13.4068 17.3271 13.1966 17.5025 13.0485 17.7261C12.9004 17.9497 12.821 18.2117 12.8199 18.4798V18.6215C12.8199 19.0635 12.6443 19.4874 12.3318 19.8C12.0192 20.1126 11.5953 20.2882 11.1533 20.2882C10.7112 20.2882 10.2873 20.1126 9.97474 19.8C9.66218 19.4874 9.48659 19.0635 9.48659 18.6215V18.5465C9.48014 18.2707 9.39085 18.0032 9.23035 17.7787C9.06984 17.5543 8.84553 17.3834 8.58659 17.2882C8.33524 17.1772 8.05643 17.1441 7.7861 17.1932C7.51577 17.2422 7.26632 17.371 7.06992 17.5632L7.01992 17.6132C6.86513 17.7681 6.68132 17.891 6.47899 17.9749C6.27666 18.0588 6.05978 18.102 5.84075 18.102C5.62173 18.102 5.40485 18.0588 5.20252 17.9749C5.00019 17.891 4.81638 17.7681 4.66159 17.6132C4.50663 17.4584 4.3837 17.2746 4.29982 17.0722C4.21595 16.8699 4.17278 16.653 4.17278 16.434C4.17278 16.215 4.21595 15.9981 4.29982 15.7958C4.3837 15.5934 4.50663 15.4096 4.66159 15.2548L4.71159 15.2048C4.9037 15.0084 5.03258 14.759 5.08159 14.4886C5.13061 14.2183 5.09752 13.9395 4.98659 13.6882C4.88095 13.4417 4.70555 13.2315 4.48198 13.0834C4.2584 12.9353 3.99641 12.8559 3.72826 12.8548H3.58659C3.14456 12.8548 2.72064 12.6792 2.40808 12.3667C2.09552 12.0541 1.91992 11.6302 1.91992 11.1882C1.91992 10.7461 2.09552 10.3222 2.40808 10.0096C2.72064 9.69709 3.14456 9.52149 3.58659 9.52149H3.66159C3.93742 9.51504 4.20493 9.42576 4.42934 9.26525C4.65375 9.10474 4.82468 8.88044 4.91992 8.62149C5.03085 8.37014 5.06394 8.09133 5.01493 7.821C4.96591 7.55067 4.83704 7.30122 4.64492 7.10482L4.59492 7.05482C4.43996 6.90004 4.31703 6.71622 4.23316 6.51389C4.14928 6.31156 4.10611 6.09468 4.10611 5.87566C4.10611 5.65663 4.14928 5.43975 4.23316 5.23742C4.31703 5.03509 4.43996 4.85128 4.59492 4.69649C4.74971 4.54153 4.93352 4.4186 5.13585 4.33472C5.33818 4.25085 5.55506 4.20768 5.77409 4.20768C5.99311 4.20768 6.20999 4.25085 6.41232 4.33472C6.61465 4.4186 6.79847 4.54153 6.95325 4.69649L7.00325 4.74649C7.19965 4.9386 7.4491 5.06748 7.71943 5.11649C7.98976 5.16551 8.26857 5.13242 8.51992 5.02149H8.58659C8.83306 4.91585 9.04327 4.74045 9.19133 4.51688C9.33939 4.2933 9.41885 4.03131 9.41992 3.76316V3.62149C9.41992 3.17946 9.59552 2.75554 9.90808 2.44298C10.2206 2.13042 10.6446 1.95482 11.0866 1.95482C11.5286 1.95482 11.9525 2.13042 12.2651 2.44298C12.5777 2.75554 12.7533 3.17946 12.7533 3.62149V3.69649C12.7543 3.96465 12.8338 4.22664 12.9818 4.45021C13.1299 4.67379 13.3401 4.84919 13.5866 4.95482C13.8379 5.06575 14.1167 5.09884 14.3871 5.04983C14.6574 5.00081 14.9069 4.87194 15.1033 4.67982L15.1533 4.62982C15.308 4.47486 15.4919 4.35193 15.6942 4.26806C15.8965 4.18418 16.1134 4.14101 16.3324 4.14101C16.5514 4.14101 16.7683 4.18418 16.9707 4.26806C17.173 4.35193 17.3568 4.47486 17.5116 4.62982C17.6665 4.78461 17.7895 4.96843 17.8734 5.17076C17.9572 5.37309 18.0004 5.58996 18.0004 5.80899C18.0004 6.02802 17.9572 6.24489 17.8734 6.44722C17.7895 6.64955 17.6665 6.83337 17.5116 6.98816L17.4616 7.03816C17.2695 7.23456 17.1406 7.484 17.0916 7.75433C17.0426 8.02466 17.0757 8.30348 17.1866 8.55482V8.62149C17.2922 8.86796 17.4676 9.07817 17.6912 9.22623C17.9148 9.3743 18.1768 9.45375 18.4449 9.45482H18.5866C19.0286 9.45482 19.4525 9.63042 19.7651 9.94298C20.0777 10.2555 20.2533 10.6795 20.2533 11.1215C20.2533 11.5635 20.0777 11.9874 19.7651 12.3C19.4525 12.6126 19.0286 12.7882 18.5866 12.7882H18.5116C18.2434 12.7892 17.9814 12.8687 17.7579 13.0167C17.5343 13.1648 17.3589 13.375 17.2533 13.6215V13.6215Z" stroke="#4C4C4C" stroke-width="2" stroke-linecap="round" stroke-linejoin="round"/>
</svg>
