<svg width="21" height="21" viewBox="0 0 21 21" fill="none" xmlns="http://www.w3.org/2000/svg">
<path d="M13.7321 12.2438H13.0738L12.8404 12.0188C13.6571 11.0688 14.1488 9.83548 14.1488 8.49381C14.1488 5.50215 11.7238 3.07715 8.7321 3.07715C5.74043 3.07715 3.31543 5.50215 3.31543 8.49381C3.31543 11.4855 5.74043 13.9105 8.7321 13.9105C10.0738 13.9105 11.3071 13.4188 12.2571 12.6021L12.4821 12.8355V13.4938L16.6488 17.6521L17.8904 16.4105L13.7321 12.2438ZM8.7321 12.2438C6.6571 12.2438 4.9821 10.5688 4.9821 8.49381C4.9821 6.41881 6.6571 4.74382 8.7321 4.74382C10.8071 4.74382 12.4821 6.41881 12.4821 8.49381C12.4821 10.5688 10.8071 12.2438 8.7321 12.2438Z" fill="#C2CFE0"/>
</svg>
