<svg width="21" height="21" viewBox="0 0 21 21" fill="none" xmlns="http://www.w3.org/2000/svg">
<path d="M2.5859 3.62032H16.7526C16.8243 3.62032 16.8859 3.68192 16.8859 3.75365V8.75365C16.8859 8.82539 16.8243 8.88699 16.7526 8.88699H2.5859C2.51416 8.88699 2.45256 8.82539 2.45256 8.75365V3.75365C2.45256 3.68192 2.51416 3.62032 2.5859 3.62032ZM2.5859 11.9537H16.7526C16.8243 11.9537 16.8859 12.0153 16.8859 12.087V17.087C16.8859 17.1587 16.8243 17.2203 16.7526 17.2203H2.5859C2.51416 17.2203 2.45256 17.1587 2.45256 17.087V12.087C2.45256 12.0153 2.51416 11.9537 2.5859 11.9537Z" stroke="#4C4C4C" stroke-width="1.4"/>
</svg>
