<svg width="15" height="15" viewBox="0 0 15 15" fill="none" xmlns="http://www.w3.org/2000/svg">
<g clip-path="url(#clip0_4774_587)">
<path fill-rule="evenodd" clip-rule="evenodd" d="M2.08594 0.12149C0.981368 0.12149 0.0859375 1.01692 0.0859375 2.12149V12.1215C0.0859375 13.2261 0.981368 14.1215 2.08594 14.1215H12.0859C13.1905 14.1215 14.0859 13.2261 14.0859 12.1215V2.12149C14.0859 1.01692 13.1905 0.12149 12.0859 0.12149H2.08594ZM5.08594 2.12149C4.53365 2.12149 4.08594 2.56921 4.08594 3.12149V11.1215C4.08594 11.6738 4.53365 12.1215 5.08594 12.1215C5.63822 12.1215 6.08594 11.6738 6.08594 11.1215V3.12149C6.08594 2.56921 5.63822 2.12149 5.08594 2.12149Z" fill="#C2CFE0"/>
</g>
<defs>
<clipPath id="clip0_4774_587">
<rect width="14" height="14" fill="white" transform="translate(0.0859375 0.12149)"/>
</clipPath>
</defs>
</svg>
