<svg xmlns="http://www.w3.org/2000/svg" width="1500" height="465">
  <g transform="translate(-.91 -.266)">
    <svg xmlns="http://www.w3.org/2000/svg" xmlns:xlink="http://www.w3.org/1999/xlink" width="1500" height="465" data-background-color="#ffffff" viewBox="0 0 396 123">
      <g transform="translate(.24 .07)">
        <svg width="395.52" height="122.859" viewBox="0 0 395.52 122.859">
          <g>
            <svg width="395.52" height="122.859" viewBox="0 0 628.669 195.282">
              <g transform="translate(233.15 57.54)">
                <svg width="395.52" height="80.203" viewBox="0 0 395.52 80.203">
                  <g>
                    <svg width="395.52" height="80.203" viewBox="0 0 395.52 80.203">
                      <g>
                        <svg width="395.52" height="80.203" viewBox="0 0 395.52 80.203">
                          <g>
                            <svg width="395.52" height="80.203" data-palette-color="#dedede" viewBox="4.6 -36 179.99 36.5">
                              <path fill="#dedede" d="M34.65-34.3h7.65V0h-4.9v-28.55h-.3L25.25 0H21.1L9.3-28.55h-.25V0H4.6v-34.3h7.7l11.05 27h.2l11.1-27Zm26.65 8.25q3.15 0 5.57 1.32 2.43 1.33 3.78 3.78Q72-18.5 72-15.25v3.55H54.15q.1 4.05 1.9 6.25 1.8 2.2 5.35 2.2 3.15 0 4.65-1.85 1.5-1.85 1.5-4.4H72q0 3-1.38 5.25-1.37 2.25-3.8 3.5Q64.4.5 61.3.5h-.2q-5.4 0-8.53-3.48-3.12-3.47-3.12-9.27v-1q0-3.8 1.4-6.7 1.4-2.9 4-4.5t6.1-1.6h.35Zm-.25 3.75q-2.85 0-4.63 1.75-1.77 1.75-2.17 5.2h13.1v-.6q0-2.85-1.73-4.6-1.72-1.75-4.57-1.75Zm23.3-11.4v8.15h5.95v3.75h-5.95v15.25q0 1.8.7 2.6t2.15.8q1.3 0 3.1-.75v3.5q-1.8.9-4.65.9-2.95 0-4.48-1.75Q79.65-3 79.65-6.8v-15h-2.8v-3.75h2.95l1.6-8.15h2.95Zm23.29 7.65q3.55 0 5.55 2.27 2 2.28 2 5.73l-.15 1.9h-4.15v-1.1q0-1.5-.75-2.65t-1.9-1.78q-1.15-.62-2.3-.62-2.4 0-3.75 1.9t-1.35 5.15V0h-4.7v-25.55h3.35l.7 3.8q.3-1 1.35-2t2.63-1.65q1.57-.65 3.47-.65Zm12.9-9.95h4.9v4.35h-4.9V-36Zm.1 10.45h4.7V0h-4.7v-25.55Zm23-.5q3.05 0 5.47 1.32 2.43 1.33 3.78 3.73 1.35 2.4 1.35 5.5h-4.65q0-3.1-1.58-4.95-1.57-1.85-4.52-1.85-3.1 0-4.93 2.07-1.82 2.08-1.82 5.68v2.7q0 4.35 1.8 6.47 1.8 2.13 5.1 2.13 3.05 0 4.57-1.83 1.53-1.82 1.53-4.92h4.5q0 4.8-2.88 7.65Q148.49.5 143.69.5h-.4q-3.4 0-5.95-1.57-2.55-1.58-3.93-4.43-1.37-2.85-1.37-6.65v-1.2q0-3.8 1.4-6.68 1.4-2.87 3.95-4.45 2.55-1.57 5.85-1.57h.4Zm27.24 0q5.06 0 7.53 2 2.47 2 2.47 5.8V-5q0 .9.4 1.32.41.43 1 .43 1.16 0 2.31-.7V-.5q-1.71 1-3.85 1-2.15 0-3.21-1.23-1.04-1.22-1.15-3.37-3.1 4.6-8.94 4.6-4.2 0-6.28-1.83-2.07-1.82-2.07-5.77 0-3.1 1.6-4.88 1.59-1.77 5.3-2.57 3.7-.8 10.2-.8v-2.35q0-2.55-1.5-3.58-1.5-1.02-4.35-1.02-2.71 0-4.21 1.05t-1.5 2.95v.6h-4.6q-.09-.7-.09-1.65 0-1.75 1.4-3.3 1.4-1.55 3.79-2.48 2.4-.92 5.31-.92h.44Zm5.31 14.35q-5.25 0-7.93.52-2.67.53-3.57 1.58-.91 1.05-.91 2.9 0 3.45 5.25 3.45 1.85 0 3.5-.92 1.66-.93 2.66-2.63 1-1.7 1-3.9v-1Z" class="wordmark-text-0" data-fill-palette-color="primary"/>
                            </svg>
                          </g>
                        </svg>
                      </g>
                    </svg>
                  </g>
                </svg>
              </g>
              <g>
                <svg width="195.282" height="195.282" viewBox="0 0 195.282 195.282">
                  <g>
                    <svg/>
                  </g>
                  <g>
                    <svg width="195.282" height="195.282" viewBox="0 0 195.282 195.282">
                      <g>
                        <path fill="#dedede" stroke="transparent" d="M0 97.641C0 43.716 43.715 0 97.641 0c53.925 0 97.641 43.715 97.64 97.641 0 53.925-43.715 97.641-97.64 97.64C43.716 195.281 0 151.566 0 97.641zm97.641 90.408c49.931 0 90.408-40.477 90.408-90.408 0-49.931-40.477-90.408-90.408-90.408-49.931 0-90.408 40.477-90.408 90.408 0 49.931 40.477 90.408 90.408 90.408z" data-fill-palette-color="accent"/>
                      </g>
                      <g transform="translate(41.136 47.223)">
                        <svg width="113.009" height="100.836" viewBox="0 0 113.009 100.836">
                          <g>
                            <svg xmlns="http://www.w3.org/2000/svg" xmlns:xlink="http://www.w3.org/1999/xlink" xml:space="preserve" width="113.009" height="100.836" class="icon-cg-0" data-fill-palette-color="accent" viewBox="5.17 15.185 89.45 79.815">
                              <path fill="#dedede" d="M86.917 75.943c4.614-2.813 7.703-7.896 7.703-13.675 0-5.739-3.028-10.781-7.58-13.604V18.111a2.925 2.925 0 0 0-2.925-2.926H8.085a2.924 2.924 0 0 0-2.915 2.926v49.711a2.924 2.924 0 0 0 2.915 2.926h32.17l-8.388 8.387c-1.82 1.821-1.207 3.305 1.371 3.305h25.736c2.567 0 3.191-1.483 1.36-3.305l-8.388-8.387H65.11c2.823 4.5 7.835 7.497 13.532 7.497.144 0 .286 0 .42-.01l4.05 13.818a4.094 4.094 0 0 0 5.075 2.783c2.169-.644 3.417-2.915 2.782-5.084l-4.052-13.809zM62.666 62.269c0 .89.072 1.77.215 2.628L11.01 65V21.14l70.18-.104v25.449a16.053 16.053 0 0 0-2.547-.205c-8.817 0-15.977 7.171-15.977 15.989zm20.6 9.829c-.992.471-2.066.788-3.191.941-.471.062-.951.092-1.432.092-2.557 0-4.92-.89-6.771-2.383a10.806 10.806 0 0 1-3.774-5.852 11.099 11.099 0 0 1-.317-2.628c0-5.995 4.869-10.874 10.863-10.874.88 0 1.729.103 2.547.308a10.833 10.833 0 0 1 5.851 3.683 10.802 10.802 0 0 1 2.465 6.884 10.84 10.84 0 0 1-3.232 7.723 10.957 10.957 0 0 1-3.009 2.106z" data-fill-palette-color="accent"/>
                              <path fill="#dedede" d="M84.872 67.153a1.022 1.022 0 0 1-.868-1.562 6.296 6.296 0 0 0 .946-3.326 6.29 6.29 0 0 0-3.42-5.609 1.023 1.023 0 1 1 .938-1.817 8.326 8.326 0 0 1 4.528 7.427 8.337 8.337 0 0 1-1.255 4.406c-.193.31-.527.481-.869.481zM25 57.5a2.5 2.5 0 0 1-2.5-2.5V44.5a2.5 2.5 0 1 1 5 0V55a2.5 2.5 0 0 1-2.5 2.5zM31.667 57.5a2.5 2.5 0 0 1-2.5-2.5V40a2.5 2.5 0 1 1 5 0v15a2.5 2.5 0 0 1-2.5 2.5zM58.417 57.5a2.5 2.5 0 0 1-2.5-2.5v-5a2.5 2.5 0 1 1 5 0v5a2.5 2.5 0 0 1-2.5 2.5zM38.333 57.5a2.5 2.5 0 0 1-2.5-2.5V30a2.5 2.5 0 1 1 5 0v25a2.5 2.5 0 0 1-2.5 2.5zM45 57.5a2.5 2.5 0 0 1-2.5-2.5V40a2.5 2.5 0 1 1 5 0v15a2.5 2.5 0 0 1-2.5 2.5zM51.667 57.5a2.5 2.5 0 0 1-2.5-2.5V35a2.5 2.5 0 1 1 5 0v20a2.5 2.5 0 0 1-2.5 2.5z" data-fill-palette-color="accent"/>
                            </svg>
                          </g>
                        </svg>
                      </g>
                    </svg>
                  </g>
                </svg>
              </g>
            </svg>
          </g>
        </svg>
      </g>
    </svg>
  </g>
</svg>